<?xml version="1.0" encoding="UTF-8" standalone="no"?>
<!-- Created with Inkscape (http://www.inkscape.org/) -->
<!-- #fff this is the color for this svg can change for a variable in react or another technology -->
<svg
   width="200.17461mm"
   height="186.42403mm"
   viewBox="0 0 200.17461 186.42403"
   version="1.1"
   id="svg5"
   inkscape:export-filename="usuaal logo p1.svg"
   inkscape:export-xdpi="96"
   inkscape:export-ydpi="96"
   sodipodi:docname="logo usuaal mb.svg"
   xml:space="preserve"
   inkscape:version="1.2.2 (732a01da63, 2022-12-09)"
   xmlns:inkscape="http://www.inkscape.org/namespaces/inkscape"
   xmlns:sodipodi="http://sodipodi.sourceforge.net/DTD/sodipodi-0.dtd"
   xmlns:xlink="http://www.w3.org/1999/xlink"
   xmlns="http://www.w3.org/2000/svg"
   xmlns:svg="http://www.w3.org/2000/svg"><sodipodi:namedview
     id="namedview7"
     pagecolor="#ffffff"
     bordercolor="#000000"
     borderopacity="0.25"
     inkscape:showpageshadow="2"
     inkscape:pageopacity="0.0"
     inkscape:pagecheckerboard="0"
     inkscape:deskcolor="#d1d1d1"
     inkscape:document-units="mm"
     showgrid="false"
     inkscape:lockguides="false"
     inkscape:zoom="0.3581229"
     inkscape:cx="-494.24374"
     inkscape:cy="615.71043"
     inkscape:window-width="1920"
     inkscape:window-height="991"
     inkscape:window-x="-9"
     inkscape:window-y="-9"
     inkscape:window-maximized="1"
     inkscape:current-layer="layer1" /><defs
     id="defs2" /><g
     inkscape:label="Capa 1"
     inkscape:groupmode="layer"
     id="layer1"
     transform="translate(-1.1753209,-9.3455961)"><g
       id="g717"
       style="fill:#fff"><g
         aria-label="U"
         transform="rotate(62.728388)"
         id="text2409"
         style="font-size:232.387px;font-family:'French Script MT';-inkscape-font-specification:'French Script MT';display:inline;fill:#fff;stroke-width:19.3658"
         inkscape:export-filename="Desktop\usaallogo.webp"
         inkscape:export-xdpi="96"
         inkscape:export-ydpi="96"><path
           d="m 215.61932,-20.179028 c 0,26.8546167 -6.08957,46.976668 -18.2687,60.366153 -12.10349,13.389485 -30.3722,20.084227 -54.80611,20.084227 -11.87655,0 -22.1267,-1.512936 -30.75043,-4.538808 C 103.17034,52.631025 96.173013,48.016569 90.80209,41.889178 85.809401,36.215667 82.064884,28.953574 79.568539,20.102897 77.072194,11.252221 75.824022,0.8507846 75.824022,-11.101411 c 0,-9.909732 1.134702,-24.698683 3.404106,-44.366853 2.345051,-19.743817 3.517577,-34.570591 3.517577,-44.480323 0,-6.429973 -0.491704,-12.065663 -1.475113,-16.907063 -0.907762,-4.84139 -2.307228,-8.92632 -4.198398,-12.25478 l 9.644968,-4.31187 c 3.479753,6.88386 6.240862,14.7133 8.283325,23.48833 2.118111,8.77503 3.5554,18.457826 4.311869,29.048379 0.22694,3.328459 0.378233,9.569321 0.45388,18.722585 0.151294,9.153263 0.226941,21.218929 0.226941,36.196997 0,9.228911 0.226943,17.0961788 0.680823,23.6018043 0.52953,6.4299787 1.28599,11.4604912 2.2694,15.0915377 2.11811,7.564681 5.37093,13.238192 9.75844,17.020532 4.38751,3.782341 9.90973,5.673511 16.56665,5.673511 7.71597,0 14.2216,-1.323819 19.51688,-3.971458 5.37092,-2.647638 9.53149,-6.656919 12.48172,-12.027842 2.11811,-3.857987 3.7067,-8.737206 4.76575,-14.6376574 1.1347,-5.900451 1.70205,-12.8599572 1.70205,-20.8785186 0,-1.512937 -0.0378,-3.32846 -0.11347,-5.44657 -0.0756,-2.118111 -0.15129,-4.500985 -0.22694,-7.148624 -0.0756,-3.025872 -0.15129,-5.522217 -0.22694,-7.489034 v -4.652278 l 17.36094,-1.361643 -1.1347,-13.389485 -16.45318,0.567351 -0.56735,-12.708664 16.22624,-0.794291 -0.45388,-13.162545 h -15.77236 l -0.56735,-13.276014 16.33971,1.134702 v -12.141315 l -16.33971,-1.47511 -0.56735,-13.50296 c 0,0 1.04554,-9.75957 7.82536,-9.26764 23.44993,1.70145 39.26478,13.91992 39.26478,13.91992 1.05905,30.863899 1.85334,54.314411 2.38287,70.351534 0.60517,16.037123 0.90776,24.623036 0.90776,25.757738 z"
           style="font-family:Jokerman;-inkscape-font-specification:Jokerman;display:inline;fill:#fff"
           id="path1087"
           sodipodi:nodetypes="scsccsscsccccccsccsscccsscccccccccccccccsccs"
           inkscape:label="path1087"
           inkscape:export-filename="logo svg.svg"
           inkscape:export-xdpi="96"
           inkscape:export-ydpi="96" /><g
           aria-label="suaal
"
           transform="matrix(0.01859312,-1.1183082,0.89382108,0.02326279,0,0)"
           id="text979"
           style="font-size:56.4001px;display:none;fill:#fff;stroke-width:1.92273"><path
             d="m -17.969745,179.19239 -0.605861,-6.0586 q 2.698833,1.10156 4.571493,1.54219 1.872659,0.41309 3.442389,0.41309 1.5697289,0 2.6437543,-0.35801 1.0740253,-0.38555 1.5972685,-1.10157 0.5232431,-0.74355 0.5232431,-1.54219 0,-0.35801 -0.082617,-0.66094 -0.055078,-0.30293 -0.247852,-0.63339 -0.1652346,-0.33047 -0.4130866,-0.60587 -0.2203129,-0.30293 -0.6333996,-0.66093 -0.4130867,-0.38555 -1.1841818,-0.96387 l -1.487112,-1.18418 q -2.1480509,-1.67989 -3.2771549,-2.64376 -1.129103,-0.96387 -1.900199,-1.95528 -0.771095,-1.01894 -1.184181,-2.12051 -0.385548,-1.1291 -0.385548,-2.28574 0,-2.01036 1.211721,-3.82794 1.23926,-1.81758 3.580085,-2.64376 2.3408244,-0.85371 5.5078223,-0.85371 3.6076236,0 8.3168117,0.85371 l 0.3580084,5.75568 q -3.19453691,-1.29434 -6.1412219,-1.29434 -1.5972684,0 -2.8089893,0.33047 -1.1841818,0.30293 -1.707425,0.96387 -0.5232431,0.6334 -0.5232431,1.43203 0,0.46817 0.1652347,0.93633 0.1652346,0.44063 0.5783213,0.93633 0.4130867,0.49571 0.9363298,0.93633 0.5507823,0.44063 2.2582072,1.73497 1.7074249,1.29433 2.974224,2.34082 1.29433829,1.04649 2.12051164,2.12051 0.82617336,1.04649 1.26679916,2.25821 0.4406258,1.21172 0.4406258,2.45098 0,2.06543 -1.26679918,3.82794 -1.26679913,1.7625 -3.82793652,2.75391 -2.5611374,0.99141 -5.7281352,0.99141 -1.6523468,0 -4.0207108,-0.2754 -2.368364,-0.24785 -5.067196,-0.90879 z"
             style="font-family:'Eras Demi ITC';-inkscape-font-specification:'Eras Demi ITC';fill:#fff"
             id="path340" /><path
             d="m 35.924295,179.71564 q -2.423441,-0.0551 -3.71778,-0.0551 -1.624807,0 -3.690241,0.0551 l 0.05508,-4.5715 q -0.771096,1.15665 -1.349417,1.87266 -0.578321,0.68848 -1.514651,1.37696 -0.93633,0.66094 -2.037894,1.07403 -1.101565,0.38554 -2.533599,0.63339 -1.404494,0.2754 -3.001763,0.2754 -3.08438,0 -5.370127,-0.88126 -2.285746,-0.90879 -3.6351623,-2.72637 -1.3218773,-1.81758 -1.3218773,-5.20489 v -0.57832 l 0.4406258,-7.10509 0.4130866,-9.3633 q 0.027539,-1.1291 0.027539,-2.80899 2.6162162,0.0551 4.1033282,0.0551 1.569729,0 3.800397,-0.0551 l -0.908791,12.55784 q -0.08262,1.45957 -0.137695,2.47852 -0.02754,0.9914 -0.02754,1.43203 0,1.98282 0.578321,3.30469 0.60586,1.29434 2.065433,1.98282 1.487112,0.68848 3.166998,0.68848 1.597269,0 3.029302,-0.60586 1.294339,-0.55079 2.203129,-1.54219 0.93633,-0.99141 1.56973,-2.6713 0.468165,-1.21172 0.716017,-3.35977 0.192773,-1.51465 0.358008,-5.20489 0.220313,-4.46134 0.30293,-9.06037 2.726372,0.0551 4.158406,0.0551 1.624808,0 3.662702,-0.0551 -0.330469,3.93809 -0.688478,9.859 -0.358008,5.89337 -0.495704,9.74885 -0.137695,3.82793 -0.220313,8.39943 z"
             style="font-family:'Eras Demi ITC';-inkscape-font-specification:'Eras Demi ITC';fill:#fff"
             id="path342" /><path
             d="m 44.874505,157.84958 q 0.385547,-1.98281 0.468165,-2.78145 0.110156,-0.79863 0.358008,-2.42344 3.745319,-0.88125 6.609387,-1.23926 2.864068,-0.35801 5.535361,-0.35801 3.029303,0 5.562901,0.71602 2.533598,0.68848 3.965632,2.23067 1.432034,1.54219 1.432034,4.43379 0,1.56973 -0.440626,8.01389 -0.440626,6.41661 -0.523243,13.27385 -2.092973,-0.0551 -3.855476,-0.0551 -1.679886,0 -3.938093,0.0551 0.358009,-3.33224 0.578322,-7.71095 l 0.358008,-6.85724 q -1.046486,0.68847 -1.597268,0.96387 -0.550783,0.27539 -1.23926,0.52324 -0.688478,0.22031 -2.423442,0.71602 -1.734964,0.46816 -2.78145,0.82617 -1.046487,0.35801 -1.900199,0.82617 -0.826174,0.44063 -1.404495,1.01895 -0.578321,0.55078 -0.853712,1.18418 -0.247852,0.60586 -0.247852,1.32188 0,1.15664 0.660938,2.01035 0.688478,0.82618 1.707425,1.15665 1.018947,0.33047 2.395903,0.33047 0.881252,0 1.84512,-0.1377 0.991408,-0.13769 2.643755,-0.68848 -0.578321,1.56973 -1.349416,4.68165 -1.955277,0.33047 -3.11192,0.41309 -1.156643,0.0826 -2.148051,0.0826 -3.469928,0 -5.700596,-0.93633 -2.230668,-0.93633 -3.304693,-2.97423 -1.046486,-2.03789 -1.046486,-4.10333 0,-1.18418 0.413086,-2.34082 0.413087,-1.15664 1.211721,-2.12051 0.798634,-0.96387 2.065434,-1.84512 1.266799,-0.90879 3.662701,-1.73497 2.395903,-0.85371 6.333996,-1.70742 1.046486,-0.22031 2.17559,-0.52324 1.129103,-0.33047 1.790042,-0.6334 0.688478,-0.30293 1.184182,-0.7711 0.495704,-0.4957 0.716017,-1.01895 0.247852,-0.52324 0.247852,-1.07402 0,-1.07403 -0.716017,-1.81758 -0.688478,-0.74356 -1.817581,-1.01895 -1.101565,-0.30293 -2.450981,-0.30293 -5.012119,0 -11.070723,2.3959 z"
             style="font-family:'Eras Demi ITC';-inkscape-font-specification:'Eras Demi ITC';fill:#fff"
             id="path344" /><path
             d="m 76.847417,157.84958 q 0.385547,-1.98281 0.468165,-2.78145 0.110156,-0.79863 0.358008,-2.42344 3.745319,-0.88125 6.609387,-1.23926 2.864067,-0.35801 5.535361,-0.35801 3.029302,0 5.562901,0.71602 2.533598,0.68848 3.965632,2.23067 1.432029,1.54219 1.432029,4.43379 0,1.56973 -0.44062,8.01389 -0.440627,6.41661 -0.523244,13.27385 -2.092973,-0.0551 -3.855476,-0.0551 -1.679886,0 -3.938093,0.0551 0.358009,-3.33224 0.578321,-7.71095 l 0.358009,-6.85724 q -1.046486,0.68847 -1.597269,0.96387 -0.550782,0.27539 -1.23926,0.52324 -0.688477,0.22031 -2.423441,0.71602 -1.734964,0.46816 -2.781451,0.82617 -1.046486,0.35801 -1.900198,0.82617 -0.826174,0.44063 -1.404495,1.01895 -0.578321,0.55078 -0.853713,1.18418 -0.247852,0.60586 -0.247852,1.32188 0,1.15664 0.660939,2.01035 0.688478,0.82618 1.707425,1.15665 1.018947,0.33047 2.395903,0.33047 0.881251,0 1.84512,-0.1377 0.991408,-0.13769 2.643755,-0.68848 -0.578321,1.56973 -1.349416,4.68165 -1.955277,0.33047 -3.11192,0.41309 -1.156643,0.0826 -2.148051,0.0826 -3.469928,0 -5.700596,-0.93633 -2.230668,-0.93633 -3.304693,-2.97423 -1.046487,-2.03789 -1.046487,-4.10333 0,-1.18418 0.413087,-2.34082 0.413087,-1.15664 1.211721,-2.12051 0.798634,-0.96387 2.065433,-1.84512 1.2668,-0.90879 3.662702,-1.73497 2.395903,-0.85371 6.333996,-1.70742 1.046486,-0.22031 2.17559,-0.52324 1.129103,-0.33047 1.790042,-0.6334 0.688478,-0.30293 1.184182,-0.7711 0.495704,-0.4957 0.716017,-1.01895 0.247852,-0.52324 0.247852,-1.07402 0,-1.07403 -0.716017,-1.81758 -0.688478,-0.74356 -1.817582,-1.01895 -1.101564,-0.30293 -2.45098,-0.30293 -5.012119,0 -11.070723,2.3959 z"
             style="font-family:'Eras Demi ITC';-inkscape-font-specification:'Eras Demi ITC';fill:#fff"
             id="path346" /><path
             d="m 106.72734,179.71564 q 0.41309,-4.65411 0.99141,-16.71624 0.60586,-12.08967 0.74356,-20.87465 2.86407,0.0551 4.07579,0.0551 1.6248,0 3.96563,-0.0551 l -0.66094,10.05178 -0.96387,22.41683 -0.11015,5.12228 q -2.25821,-0.0551 -3.82794,-0.0551 -0.52324,0 -4.21349,0.0551 z"
             style="font-family:'Eras Demi ITC';-inkscape-font-specification:'Eras Demi ITC';fill:#fff"
             id="path348" /></g><image
           
           width="555"
           height="371"
           transform="matrix(0.12123452,-0.23517341,0.23517341,0.12123452,68.527664,-9.7531847)"
           id="image385"
           style="display:none;fill:#fff" /></g><g
         id="g462"
         inkscape:label="suaal"
         transform="translate(317.90636,-66.812065)"
         style="fill:#fff"><path
           d="m -269.37836,226.23432 -11.33042,-8.09246 c 3.33438,-0.76749 13.33589,-3.46108 15.53905,-4.3726 2.19377,-0.94377 4.15103,-2.01388 5.87176,-3.21036 1.72071,-1.19648 3.10865,-2.41358 4.16382,-3.65136 1.04578,-1.26998 1.73325,-2.52355 2.06247,-3.7606 0.31989,-1.26928 0.34261,-2.37155 0.0708,-3.30642 -0.12216,-0.41911 -0.28024,-0.77452 -0.47418,-1.06616 -0.16378,-0.31265 -0.40771,-0.58898 -0.7318,-0.82891 -0.29391,-0.26091 -0.6237,-0.45816 -0.98938,-0.59165 -0.34487,-0.18679 -0.80483,-0.33219 -1.37984,-0.43643 -0.58437,-0.13666 -1.39794,-0.24918 -2.44057,-0.33857 l -3.05142,-0.37926 c -2.92799,-0.32936 -5.17532,-0.62796 -6.74201,-0.8956 -1.56664,-0.26786 -2.94177,-0.6881 -4.12538,-1.26103 -1.19304,-0.60513 -2.20392,-1.39507 -3.03266,-2.36982 -0.808,-1.02798 -1.40935,-2.219 -1.80408,-3.57308 -0.68607,-2.35354 -0.67514,-5.05601 0.0328,-8.10746 0.73817,-3.07241 2.24928,-5.98436 4.53332,-8.73576 2.27463,-2.78366 5.14779,-5.38245 8.61942,-7.79638 3.95466,-2.74981 8.65874,-5.41967 14.11227,-8.00965 l 3.53509,9.69796 c -3.94357,0.91965 -7.53041,2.50249 -10.76054,4.74848 -1.75092,1.21747 -3.23413,2.48141 -4.44963,3.79188 -1.19471,1.25726 -1.96605,2.47216 -2.31408,3.64477 -0.3574,1.14034 -0.39982,2.17799 -0.12732,3.11296 0.15976,0.54809 0.41011,1.03319 0.75101,1.45532 0.33152,0.38989 0.80824,0.71757 1.43024,0.98302 0.62202,0.26547 1.29498,0.45673 2.01892,0.57374 0.75414,0.0961 2.28792,0.25089 4.60133,0.46478 2.31339,0.21386 4.34298,0.45056 6.08879,0.71006 1.77597,0.23867 7.04409,0.84127 8.31628,1.46883 1.2628,0.59542 1.99423,1.22982 2.89075,2.31257 0.89654,1.0827 1.56042,2.27744 1.98334,3.72825 0.70486,2.41803 0.56691,7.73179 -0.22027,10.76076 -0.78715,3.02894 -7.07073,10.32854 -9.5399,13.44132 -2.46917,3.11279 -5.33442,5.70829 -8.80605,8.12221 -1.81129,1.25946 -2.8148,-3.91354 -5.50495,-2.43073 -2.68078,1.51506 -5.61316,2.91423 -8.79717,4.19757 z"
           style="font-size:56.4001px;font-family:'Eras Demi ITC';-inkscape-font-specification:'Eras Demi ITC';display:inline;fill:#fff;stroke-width:3.58306"
           id="path340-6"
           sodipodi:nodetypes="cccsccsccccccsccsccsccsccscscsccsssssccc" /><path
           d="m -196.44751,188.15519 q -2.38436,1.30014 -3.64511,2.01785 -1.58264,0.90093 -3.57065,2.08982 l -1.92206,-3.64913 q -0.25122,1.3431 -0.50507,2.23053 -0.26576,0.86565 -0.88024,1.92981 -0.62638,1.04236 -1.52083,1.98014 -0.90634,0.91598 -2.1941,1.90623 -1.24902,0.99677 -2.80483,1.88243 -3.00434,1.71026 -5.61162,2.28012 -2.61917,0.54806 -4.71909,-0.1424 -2.07309,-0.70576 -3.53702,-3.38698 l -0.24995,-0.45778 -2.64149,-5.86838 -3.64427,-7.6406 q -0.46116,-0.90901 -1.18716,-2.23874 2.57213,-1.40706 4.02063,-2.23165 1.529,-0.87039 3.67796,-2.15089 l 4.54204,10.44412 q 0.55033,1.20115 0.93705,2.03823 0.40164,0.80002 0.59207,1.1488 0.85694,1.56951 1.99154,2.29517 1.14952,0.6886 2.86875,0.42428 1.74607,-0.27963 3.38235,-1.21109 1.55582,-0.88567 2.68885,-2.15929 1.0227,-1.15368 1.47944,-2.44235 0.48356,-1.30394 0.37451,-2.98487 -0.0678,-1.21872 -0.7546,-3.05646 -0.46683,-1.30581 -1.90072,-4.31847 -1.71352,-3.65354 -3.62066,-7.33973 2.67943,-1.46813 4.0743,-2.26219 1.58264,-0.90093 3.54381,-2.07454 1.38008,3.30046 3.59027,8.18569 2.19829,4.86343 3.73042,7.9916 1.52024,3.10636 3.41548,6.77076 z"
           style="font-size:56.4001px;font-family:'Eras Demi ITC';-inkscape-font-specification:'Eras Demi ITC';display:inline;fill:#fff;stroke-width:1.93294"
           id="path342-4" /><path
           d="m -199.17416,166.64842 q -0.38817,-1.78684 -0.6173,-2.47035 -0.20155,-0.69722 -0.58782,-2.12754 3.40687,-2.57367 6.13549,-4.2877 2.7286,-1.71404 5.40395,-3.04411 3.03391,-1.50834 5.85096,-2.19394 2.80629,-0.70777 4.84274,-0.1803 2.03643,0.52741 3.16562,2.85324 0.61299,1.26259 2.68817,6.6653 2.06444,5.38052 4.65949,10.9372 -2.11766,0.99781 -3.88286,1.8754 -1.68242,0.83643 -3.92253,2.00514 -0.94272,-2.8585 -2.43198,-6.49018 l -2.31925,-5.6938 q -0.77922,1.07481 -1.22329,1.57059 -0.44409,0.49575 -1.03681,1.03791 -0.60349,0.52 -2.14752,1.78259 -1.55477,1.24043 -2.46304,2.04946 -0.90828,0.80902 -1.58046,1.61065 -0.65536,0.76578 -1.00872,1.51891 -0.36412,0.73097 -0.39258,1.37756 -0.0116,0.61074 0.26799,1.18666 0.45166,0.93032 1.44698,1.2879 1.01215,0.32173 2.1617,0.0802 1.14955,-0.24154 2.5286,-0.92716 0.88257,-0.43878 1.79414,-1.02948 0.93914,-0.60438 2.37892,-1.87014 0.0336,1.55057 0.47673,4.43755 -1.82919,1.23935 -2.95531,1.88172 -1.12616,0.64237 -2.11908,1.136 -3.47519,1.72773 -6.07488,2.08529 -2.59968,0.35758 -4.47116,-0.74683 -1.84388,-1.11808 -2.65045,-2.77941 -0.46243,-0.95247 -0.50038,-2.08849 -0.038,-1.13602 0.38549,-2.30895 0.42344,-1.17292 1.34801,-2.51252 0.91384,-1.36173 2.99076,-3.21921 2.06616,-1.87964 5.67685,-4.52715 0.96204,-0.69828 1.97456,-1.50414 1.00177,-0.82799 1.54543,-1.40074 0.57122,-0.58648 0.88486,-1.20986 0.30287,-0.64554 0.3192,-1.1761 0.0434,-0.54431 -0.17121,-0.98729 -0.41939,-0.86388 -1.42686,-1.10544 -0.9799,-0.25527 -2.21825,0.0854 -1.22154,0.30483 -2.57301,0.97672 -5.0197,2.49562 -10.1519,7.43942 z"
           style="font-size:56.4001px;font-family:'Eras Demi ITC';-inkscape-font-specification:'Eras Demi ITC';display:inline;fill:#fff;stroke-width:1.92273"
           id="path344-2" /><path
           d="m -169.57375,153.25475 q -0.49785,-1.75942 -0.76872,-2.42748 -0.24428,-0.68342 -0.71814,-2.08717 3.24137,-2.77923 5.85888,-4.65854 2.61752,-1.87933 5.20558,-3.37215 2.93493,-1.69288 5.70424,-2.5512 2.75722,-0.87976 4.82235,-0.47918 2.06513,0.4006 3.33585,2.65223 0.68981,1.22232 3.09481,6.48649 2.39288,5.24271 5.32626,10.62847 -2.05199,1.12673 -3.75958,2.11167 -1.62756,0.93879 -3.79118,2.24367 -1.1175,-2.79481 -2.82828,-6.32754 l -2.66656,-5.53967 q -0.71132,1.12092 -1.12394,1.64317 -0.4126,0.52225 -0.9707,1.09998 -0.57021,0.5563 -2.03329,1.91186 -1.47519,1.33411 -2.33174,2.19771 -0.85654,0.86357 -1.47793,1.70521 -0.60681,0.80481 -0.91296,1.57833 -0.31827,0.75206 -0.30673,1.39917 0.0263,0.61028 0.34081,1.16783 0.50829,0.90065 1.5238,1.19606 1.03009,0.25858 2.16252,-0.0535 1.13242,-0.31208 2.46648,-1.08158 0.8538,-0.49247 1.72712,-1.13835 0.90003,-0.66125 2.25884,-2.01354 0.12952,1.54552 0.74998,4.39962 -1.74913,1.35001 -2.83343,2.06072 -1.08431,0.71068 -2.04484,1.26474 -3.36182,1.93912 -5.93445,2.4566 -2.57265,0.51748 -4.50876,-0.46918 -1.90943,-1.00206 -2.81709,-2.61038 -0.5204,-0.92209 -0.62845,-2.0536 -0.10806,-1.13147 0.24211,-2.32834 0.35017,-1.19686 1.19022,-2.59099 0.82798,-1.4156 2.78617,-3.39785 1.94609,-2.00367 5.38634,-4.86919 0.91706,-0.75638 1.87787,-1.62324 0.94869,-0.88833 1.45591,-1.49356 0.53391,-0.62064 0.80843,-1.2622 0.26244,-0.66303 0.24593,-1.19357 0.0102,-0.54595 -0.23177,-0.97485 -0.47198,-0.83633 -1.49245,-1.01518 -0.99379,-0.19425 -2.20873,0.22225 -1.20037,0.37976 -2.50775,1.13382 -4.85596,2.80097 -9.67294,8.05238 z"
           style="font-size:56.4001px;font-family:'Eras Demi ITC';-inkscape-font-specification:'Eras Demi ITC';display:inline;fill:#fff;stroke-width:1.92273"
           id="path346-2" /><path
           d="m -135.72999,157.364 q -0.94439,-4.08345 -3.90977,-14.47926 -2.94457,-10.42953 -5.40246,-17.89305 3.02861,-1.0433 4.30304,-1.50436 1.70888,-0.61824 4.15453,-1.55541 l 2.28288,8.73129 5.62764,19.27788 1.40172,4.36313 q -2.3914,0.81277 -4.04237,1.41006 -0.55031,0.19909 -4.41521,1.64972 z"
           style="font-size:56.4001px;font-family:'Eras Demi ITC';-inkscape-font-specification:'Eras Demi ITC';display:inline;fill:#fff;stroke-width:1.92273"
           id="path348-1" /></g></g></g></svg>
